{"glyphs":{"0":{"ha":538,"x_min":68,"x_max":469,"o":"m 75 144 q 69 215 68 185 q 149 504 78 351 q 221 603 182 575 q 275 619 253 624 q 324 588 297 615 q 382 540 331 581 q 422 501 394 531 q 458 432 450 469 q 468 339 467 394 q 465 300 468 319 q 453 253 461 281 q 442 217 444 225 q 404 144 435 186 q 381 110 403 143 q 346 64 360 78 q 241 15 306 24 q 133 36 176 6 q 75 144 85 71 m 253 474 q 179 200 181 322 q 181 163 181 165 q 204 121 185 128 q 267 129 243 108 q 367 321 336 190 q 307 474 388 408 q 276 486 292 486 q 253 474 260 486 z "},"1":{"ha":311,"x_min":68,"x_max":251,"o":"m 76 39 q 69 82 68 64 q 74 147 69 107 q 79 201 79 188 q 103 424 81 263 q 133 639 126 594 q 150 674 136 658 q 179 692 164 689 q 230 670 210 694 q 238 619 250 646 q 228 591 232 607 q 222 563 224 575 q 219 533 221 551 q 215 506 217 515 q 199 383 204 431 q 186 290 197 375 q 172 163 175 206 q 169 128 172 151 q 166 95 167 106 q 167 61 165 85 q 149 13 171 28 q 97 11 126 -3 q 76 39 85 18 z "},"2":{"ha":544,"x_min":61,"x_max":481,"o":"m 279 318 q 253 269 271 303 q 224 215 235 236 q 200 165 214 194 q 176 110 186 135 q 258 110 253 110 q 393 108 296 110 q 471 58 447 107 q 463 22 481 42 q 422 3 444 1 q 165 3 357 6 q 81 46 108 3 q 74 106 63 75 q 82 132 76 115 q 92 163 88 149 q 103 189 97 176 q 210 396 118 224 q 263 522 247 464 q 225 565 275 568 q 184 556 213 564 q 140 549 156 547 q 106 557 117 550 q 89 582 94 564 q 113 640 78 619 q 176 665 140 657 q 253 667 213 672 q 321 638 293 661 q 355 583 342 619 q 360 513 368 546 q 279 318 340 436 z "},"3":{"ha":475,"x_min":64,"x_max":415,"o":"m 318 568 q 325 525 331 553 q 263 414 325 465 q 258 411 263 413 q 253 408 254 410 q 251 402 251 406 q 253 397 251 399 q 256 394 254 394 q 261 392 258 393 q 265 390 264 390 q 292 381 271 389 q 325 367 314 372 q 391 297 367 344 q 401 203 415 250 q 282 53 378 118 q 142 -7 240 25 q 103 -4 124 -12 q 75 19 83 4 q 75 49 69 31 q 93 79 81 68 q 147 107 114 99 q 278 185 218 124 q 306 243 304 213 q 292 268 306 261 q 207 307 235 300 q 162 315 199 308 q 106 331 125 322 q 71 370 78 343 q 85 421 64 397 q 124 449 101 440 q 148 460 136 453 q 176 480 160 468 q 197 496 192 492 q 219 522 224 514 q 179 539 213 539 q 125 540 131 539 q 88 556 103 542 q 73 590 72 571 q 90 623 74 608 q 128 639 106 638 q 206 636 163 642 q 318 568 261 631 z "},"4":{"ha":532,"x_min":68,"x_max":463,"o":"m 294 -69 q 272 11 271 -35 q 274 106 272 96 q 268 124 274 118 q 250 129 263 129 q 128 151 182 135 q 83 182 99 160 q 69 228 68 204 q 79 276 71 253 q 203 493 111 353 q 217 514 208 501 q 233 536 226 526 q 247 558 240 546 q 261 581 254 569 q 272 606 268 593 q 299 631 281 621 q 333 639 317 642 q 371 624 354 638 q 393 593 388 610 q 394 499 403 553 q 382 363 386 444 q 378 312 382 350 q 375 251 375 274 q 380 231 375 235 q 401 228 385 226 q 458 199 446 236 q 460 176 463 188 q 453 155 458 165 q 440 136 449 144 q 419 125 431 128 q 400 121 403 121 q 378 115 383 122 q 375 92 374 107 q 378 -49 376 36 q 343 -93 378 -85 q 294 -69 314 -100 m 274 244 q 281 407 275 271 q 267 397 272 403 q 256 380 261 392 q 249 367 250 368 q 190 258 206 294 q 199 243 185 244 q 261 235 217 242 q 274 244 274 233 z "},"5":{"ha":575,"x_min":64,"x_max":513,"o":"m 268 542 q 201 361 261 524 q 390 299 319 394 q 397 113 450 219 q 311 17 365 50 q 181 -32 257 -17 q 124 -35 139 -40 q 85 3 90 -22 q 91 37 82 21 q 118 60 100 53 q 174 76 136 68 q 228 92 211 85 q 319 193 299 121 q 309 249 329 225 q 256 268 289 272 q 186 242 217 264 q 133 213 171 231 q 85 223 107 201 q 71 276 64 244 q 122 435 81 326 q 165 550 161 538 q 200 629 185 603 q 240 653 214 651 q 303 654 269 653 q 376 658 336 656 q 440 661 417 660 q 501 628 489 663 q 482 578 513 596 q 375 557 447 557 q 329 555 360 557 q 283 553 299 553 q 268 542 272 553 z "},"6":{"ha":458,"x_min":53,"x_max":392,"o":"m 329 264 q 386 183 392 235 q 371 104 390 140 q 201 -15 303 -21 q 97 58 131 -11 q 79 272 54 146 q 226 626 113 439 q 292 667 249 665 q 335 642 319 669 q 332 585 357 604 q 321 574 326 579 q 310 562 315 569 q 301 550 304 554 q 294 535 299 546 q 288 523 289 525 q 280 508 286 521 q 274 496 274 496 q 196 306 213 365 q 194 292 192 296 q 199 286 196 288 q 211 285 203 285 q 329 264 276 288 m 271 181 q 197 188 253 182 q 181 183 186 189 q 179 164 176 178 q 181 152 179 160 q 183 138 182 144 q 185 126 183 132 q 206 96 190 104 q 236 99 221 88 q 283 163 269 125 q 271 181 289 179 z "},"7":{"ha":424,"x_min":58,"x_max":361,"o":"m 125 657 q 188 657 129 657 q 218 656 197 656 q 255 653 239 656 q 285 647 271 651 q 344 603 328 635 q 350 528 360 571 q 294 344 335 458 q 272 271 286 319 q 249 200 257 222 q 237 163 246 189 q 223 124 228 138 q 212 88 218 110 q 201 49 206 67 q 192 4 196 15 q 169 -21 186 -15 q 136 -17 153 -26 q 107 15 113 -3 q 107 67 101 33 q 119 125 111 94 q 140 192 128 156 q 157 250 151 229 q 173 297 164 271 q 193 349 182 322 q 211 396 204 376 q 253 536 214 407 q 253 543 256 540 q 249 547 250 546 q 244 548 249 547 q 238 549 239 549 q 190 551 226 553 q 142 550 154 550 q 78 583 106 553 q 78 633 60 604 q 125 657 93 658 z "},"8":{"ha":536,"x_min":67,"x_max":468,"o":"m 83 99 q 69 171 67 147 q 129 325 76 271 q 156 347 143 340 q 183 366 179 360 q 179 399 186 372 q 188 514 171 439 q 292 675 207 601 q 399 703 343 719 q 447 658 426 694 q 467 593 468 621 q 411 438 467 529 q 343 333 388 397 q 346 310 335 321 q 374 281 371 285 q 401 177 407 229 q 357 81 394 125 q 224 6 297 11 q 138 30 179 3 q 83 99 97 57 m 224 264 q 210 253 217 258 q 200 241 204 249 q 193 228 196 233 q 188 214 190 224 q 183 200 185 204 q 180 183 182 196 q 178 168 178 171 q 180 153 178 164 q 183 138 182 143 q 190 124 185 132 q 203 113 194 117 q 260 118 232 97 q 278 135 264 122 q 276 233 329 186 q 250 261 257 251 q 224 264 240 274 m 356 596 q 290 515 315 568 q 278 433 265 463 q 339 524 317 478 q 356 596 361 571 z "},"9":{"ha":456,"x_min":64,"x_max":390,"o":"m 368 574 q 385 457 389 515 q 331 224 386 360 q 232 26 275 90 q 168 -17 207 -12 q 122 8 139 -18 q 124 65 100 46 q 143 84 135 74 q 159 107 151 94 q 171 128 167 119 q 183 154 175 138 q 193 178 190 171 q 261 344 243 281 q 261 363 265 358 q 243 367 257 367 q 125 388 189 364 q 79 431 94 400 q 72 501 64 463 q 186 651 93 606 q 296 658 244 681 q 368 574 347 636 m 188 469 q 226 467 201 469 q 251 465 250 465 q 270 466 264 464 q 278 474 276 468 q 278 489 281 481 q 276 506 278 493 q 272 525 274 518 q 250 556 265 549 q 218 550 235 564 q 175 490 186 522 q 188 469 168 471 z "},"\u0000":{"ha":0,"x_min":0,"x_max":0,"o":""},"\n":{"ha":0,"x_min":0,"x_max":0,"o":""},"\r":{"ha":0,"x_min":0,"x_max":0,"o":""}," ":{"ha":272,"x_min":0,"x_max":0,"o":""},"A":{"ha":722,"x_min":-24,"x_max":744,"o":"m 507 150 q 508 163 507 154 q 510 178 510 171 q 507 192 510 185 q 278 138 468 179 q 258 133 268 135 q 234 128 247 131 q 213 124 221 125 q 184 110 190 118 q 179 79 178 103 q 178 -17 182 15 q 179 -44 176 -24 q 176 -71 182 -64 q 128 -118 158 -121 q 97 -100 110 -115 q 83 -61 85 -85 q 81 -35 82 -56 q 80 -5 81 -14 q 78 21 79 4 q 79 51 78 38 q 82 78 81 64 q 81 97 85 92 q 61 97 76 101 q 1 111 22 83 q 8 175 -24 142 q 82 207 28 194 q 97 214 93 208 q 103 232 101 219 q 125 319 107 264 q 164 425 146 382 q 215 531 175 451 q 306 682 260 618 q 403 793 351 744 q 461 824 428 818 q 527 813 494 831 q 578 751 560 794 q 606 604 596 706 q 615 350 615 490 q 633 338 615 328 q 686 351 658 350 q 733 329 721 353 q 721 285 744 310 q 631 228 679 240 q 617 208 617 224 q 618 93 618 154 q 619 -39 618 32 q 619 -154 619 -110 q 622 -176 619 -161 q 622 -200 624 -192 q 567 -256 622 -251 q 536 -240 553 -257 q 517 -203 519 -224 q 510 -33 511 -171 q 509 55 510 -7 q 507 150 508 117 m 508 317 q 508 511 508 344 q 500 587 506 538 q 493 651 494 636 q 479 707 489 683 q 463 713 474 721 q 454 706 461 711 q 444 697 447 701 q 340 557 389 639 q 244 361 269 438 q 228 313 242 350 q 210 256 214 276 q 208 233 206 236 q 228 235 210 231 q 489 293 367 260 q 508 317 508 299 z "},"B":{"ha":486,"x_min":-40,"x_max":467,"o":"m 396 442 q 324 385 376 421 q 353 365 333 376 q 386 342 372 353 q 408 318 400 332 q 439 142 465 229 q 367 22 417 69 q 242 -64 318 -26 q 81 -132 144 -112 q 67 -135 78 -132 q 51 -140 56 -139 q 37 -144 47 -142 q 20 -145 26 -146 q 6 -142 14 -144 q -10 -136 -3 -140 q -35 -106 -31 -125 q -26 -69 -40 -87 q 29 -37 -3 -39 q 45 -31 42 -36 q 46 -12 49 -25 q 46 40 40 3 q 50 93 51 78 q 57 279 46 143 q 50 303 58 293 q 49 346 31 326 q 61 396 60 360 q 71 596 69 536 q 74 640 71 611 q 76 683 76 668 q 74 725 76 697 q 86 765 69 744 q 122 789 103 786 q 417 682 308 824 q 456 565 460 631 q 396 442 451 500 m 156 274 q 142 7 153 236 q 275 78 221 36 q 349 207 349 135 q 297 282 350 260 q 250 290 271 293 q 188 296 208 288 q 163 297 169 301 q 156 274 156 292 m 167 531 q 166 502 167 519 q 165 472 165 485 q 163 443 164 460 q 158 413 161 426 q 198 431 179 421 q 244 458 217 440 q 278 479 271 475 q 322 517 304 496 q 346 561 343 540 q 333 611 349 582 q 287 659 317 643 q 214 686 257 675 q 177 689 182 693 q 171 649 172 685 q 167 531 168 557 z "},"C":{"ha":642,"x_min":21,"x_max":628,"o":"m 135 232 q 133 199 133 231 q 144 119 136 140 q 231 67 167 61 q 265 72 247 68 q 300 81 282 75 q 331 93 318 88 q 364 108 343 99 q 396 121 385 117 q 432 137 410 126 q 469 153 454 147 q 506 167 485 160 q 544 179 526 175 q 582 175 565 183 q 604 150 599 167 q 581 82 621 97 q 458 30 554 72 q 306 -29 361 -12 q 106 -1 189 -64 q 47 83 71 24 q 38 253 21 149 q 104 450 50 332 q 157 543 131 507 q 233 644 222 631 q 266 679 257 669 q 295 709 275 689 q 333 742 315 729 q 369 765 350 754 q 409 786 392 778 q 451 802 426 794 q 494 810 475 810 q 542 806 514 810 q 600 773 578 797 q 625 713 622 749 q 622 638 628 672 q 586 599 618 607 q 538 615 557 592 q 518 675 511 646 q 518 696 518 678 q 494 715 518 722 q 422 683 461 706 q 324 597 382 658 q 214 446 257 526 q 135 232 147 319 z "},"D":{"ha":494,"x_min":-47,"x_max":471,"o":"m 82 776 q 143 788 122 789 q 339 724 256 786 q 458 504 442 646 q 439 321 471 408 q 381 199 410 240 q 369 181 376 192 q 356 163 361 169 q 344 146 351 156 q 331 128 338 136 q 318 113 325 121 q 303 97 311 104 q 174 -1 229 29 q 161 -11 168 -4 q 28 -74 107 -64 q -39 -40 -19 -79 q -40 -6 -47 -24 q -14 18 -33 11 q 14 24 6 25 q 38 32 32 24 q 44 57 44 40 q 51 242 43 132 q 64 497 54 274 q 72 566 65 519 q 78 636 78 613 q 60 693 78 674 q 45 742 39 718 q 82 776 51 765 m 153 328 q 143 94 151 310 q 175 119 157 103 q 200 139 193 135 q 300 251 254 175 q 349 363 339 315 q 361 489 367 443 q 225 668 344 621 q 183 677 190 682 q 172 636 175 672 q 168 559 171 610 q 164 483 165 508 q 153 328 153 329 z "},"E":{"ha":474,"x_min":7,"x_max":486,"o":"m 131 774 q 150 799 132 793 q 159 797 154 799 q 165 796 164 796 q 203 787 188 800 q 219 753 219 774 q 224 732 218 736 q 246 731 229 728 q 408 747 310 743 q 455 736 433 749 q 481 706 476 724 q 480 674 485 689 q 461 649 475 658 q 429 639 447 639 q 313 632 342 636 q 284 628 300 631 q 252 624 268 626 q 225 619 236 621 q 207 599 208 617 q 204 560 206 583 q 201 522 203 538 q 198 485 200 506 q 193 446 196 464 q 188 394 192 433 q 179 335 185 354 q 182 306 174 314 q 188 305 186 304 q 195 309 190 306 q 201 313 200 313 q 265 328 213 314 q 346 343 317 342 q 406 313 382 344 q 407 271 418 294 q 371 242 396 247 q 324 233 358 239 q 272 224 290 228 q 175 190 263 221 q 160 169 161 185 q 158 131 160 157 q 155 84 156 104 q 154 46 154 64 q 151 20 154 38 q 149 -6 147 3 q 154 -28 149 -22 q 175 -29 160 -33 q 299 -7 214 -18 q 388 -18 356 0 q 408 -56 408 -31 q 383 -93 407 -81 q 360 -101 369 -100 q 246 -118 315 -106 q 140 -146 174 -131 q 88 -138 114 -157 q 64 -92 61 -119 q 58 -70 64 -83 q 53 -50 53 -57 q 53 -6 53 -43 q 54 45 54 31 q 57 86 54 60 q 64 135 60 113 q 58 163 67 149 q 46 205 44 182 q 63 244 47 228 q 74 269 74 257 q 88 405 76 311 q 100 549 99 499 q 103 562 100 553 q 108 575 107 571 q 106 585 110 579 q 94 588 99 589 q 82 582 90 586 q 69 576 74 578 q 35 587 53 575 q 14 615 18 599 q 15 654 8 640 q 44 681 21 668 q 104 701 60 689 q 125 725 124 707 q 131 774 126 729 z "},"F":{"ha":567,"x_min":36,"x_max":693,"o":"m 290 408 q 288 395 290 407 q 285 382 285 383 q 288 368 286 381 q 429 406 417 403 q 522 381 496 419 q 529 350 532 367 q 511 324 526 333 q 467 307 492 310 q 431 303 449 306 q 392 294 413 300 q 359 283 371 288 q 320 270 347 279 q 286 258 293 261 q 272 242 274 254 q 266 206 272 239 q 258 154 260 172 q 244 19 256 110 q 231 -117 232 -71 q 211 -157 229 -142 q 169 -172 190 -176 q 138 -142 149 -168 q 132 -107 131 -125 q 139 -28 135 -79 q 148 64 143 22 q 161 143 153 106 q 163 158 161 149 q 164 172 164 168 q 143 211 169 201 q 120 234 125 217 q 125 268 115 251 q 128 276 125 269 q 133 284 132 282 q 137 291 133 286 q 142 298 140 296 q 148 303 144 300 q 154 309 151 307 q 161 313 157 311 q 171 315 165 315 q 181 332 178 318 q 201 480 190 383 q 219 618 213 576 q 219 627 221 625 q 208 626 217 629 q 129 588 172 608 q 72 586 106 574 q 38 632 39 599 q 48 664 38 649 q 75 682 58 679 q 104 689 90 683 q 135 702 118 694 q 161 713 151 710 q 194 726 174 717 q 226 740 215 736 q 240 758 242 746 q 240 784 238 767 q 243 808 243 801 q 282 857 242 847 q 317 853 299 861 q 346 831 336 846 q 347 802 349 825 q 365 786 344 779 q 511 817 404 801 q 650 819 606 832 q 681 797 668 814 q 692 761 693 781 q 643 721 689 724 q 601 722 619 721 q 558 721 582 722 q 515 717 535 719 q 340 675 396 696 q 328 657 332 671 q 307 536 324 638 q 299 473 303 515 q 290 408 294 431 z "},"G":{"ha":496,"x_min":32,"x_max":497,"o":"m 74 18 q 49 76 58 43 q 38 130 40 110 q 33 196 36 150 q 65 421 33 299 q 164 663 106 571 q 275 768 211 738 q 358 776 314 788 q 418 733 401 765 q 386 646 454 667 q 340 658 357 636 q 303 660 325 679 q 246 594 271 636 q 181 444 213 542 q 139 226 147 339 q 158 72 132 139 q 204 32 174 35 q 257 56 235 29 q 335 239 331 131 q 315 283 336 264 q 271 297 294 301 q 213 319 228 290 q 210 358 206 335 q 228 392 215 382 q 257 408 246 406 q 425 424 342 429 q 486 388 468 421 q 482 343 497 368 q 442 315 467 318 q 431 297 425 313 q 418 125 457 217 q 282 -50 365 -3 q 211 -65 256 -65 q 74 18 128 -67 z "},"H":{"ha":575,"x_min":21,"x_max":568,"o":"m 206 469 q 203 469 204 469 q 203 469 203 469 q 201 394 203 401 q 206 380 201 383 q 219 378 210 376 q 379 386 372 386 q 389 399 389 386 q 390 401 389 401 q 392 549 392 476 q 394 652 390 583 q 400 728 399 721 q 401 831 400 750 q 419 871 401 854 q 463 886 438 888 q 494 867 481 886 q 507 829 508 849 q 501 754 503 794 q 498 683 499 714 q 496 608 497 653 q 494 536 494 563 q 492 496 493 521 q 491 449 492 471 q 490 410 490 428 q 506 390 489 392 q 546 372 533 388 q 558 322 567 347 q 517 290 550 296 q 491 277 496 288 q 486 246 486 267 q 486 8 486 47 q 489 -174 485 -110 q 449 -237 492 -224 q 403 -224 424 -246 q 390 -202 394 -214 q 385 -179 386 -190 q 384 -155 385 -168 q 383 -131 383 -142 q 385 54 379 -31 q 386 154 386 83 q 389 256 386 225 q 385 275 390 269 q 365 279 381 281 q 207 269 283 274 q 193 254 194 269 q 189 209 193 250 q 183 147 185 168 q 178 73 181 122 q 174 0 175 24 q 126 -51 169 -53 q 86 -32 103 -50 q 69 8 69 -14 q 86 240 71 96 q 67 265 88 261 q 35 282 47 268 q 22 311 22 296 q 69 367 24 361 q 91 376 85 368 q 97 399 97 383 q 98 428 97 408 q 99 460 99 447 q 98 489 100 472 q 90 519 96 506 q 103 558 85 536 q 140 579 121 579 q 188 564 171 582 q 206 513 206 546 q 206 469 206 513 z "},"I":{"ha":176,"x_min":29,"x_max":156,"o":"m 39 104 q 38 358 38 129 q 33 523 33 417 q 31 671 32 629 q 51 718 29 701 q 104 726 72 735 q 114 721 110 725 q 119 715 118 717 q 124 705 121 713 q 129 696 128 697 q 136 674 133 686 q 139 653 139 661 q 138 628 139 644 q 138 606 138 613 q 138 428 139 561 q 139 251 138 296 q 140 193 139 236 q 141 128 140 150 q 144 72 142 106 q 151 10 147 38 q 146 -31 156 -12 q 119 -53 136 -49 q 83 -47 100 -57 q 56 -17 65 -37 q 50 -1 53 -10 q 46 13 47 7 q 43 28 44 19 q 41 43 42 38 q 40 58 40 49 q 39 73 39 68 q 39 89 39 78 q 39 104 39 100 z "},"J":{"ha":518,"x_min":22,"x_max":478,"o":"m 476 229 q 476 201 476 228 q 436 -78 478 43 q 276 -285 389 -212 q 169 -314 226 -317 q 69 -278 113 -311 q 38 -210 47 -260 q 47 -51 22 -132 q 93 46 67 10 q 125 74 108 65 q 171 69 150 85 q 183 31 189 56 q 151 -60 178 -1 q 132 -192 128 -110 q 147 -210 132 -203 q 175 -214 161 -217 q 283 -139 236 -199 q 368 131 354 -46 q 370 215 372 154 q 367 298 368 275 q 360 381 365 321 q 353 465 354 442 q 342 646 347 547 q 347 674 342 660 q 361 697 351 688 q 381 708 371 706 q 411 705 396 711 q 437 686 426 699 q 449 658 447 674 q 458 508 450 649 q 468 386 460 488 q 476 229 476 285 z "},"K":{"ha":508,"x_min":33,"x_max":551,"o":"m 167 469 q 174 465 168 468 q 257 556 253 550 q 385 683 308 608 q 421 718 415 714 q 494 722 471 750 q 508 681 510 706 q 488 638 507 657 q 424 574 467 617 q 361 511 382 532 q 267 408 344 492 q 264 382 256 396 q 368 201 325 278 q 460 32 390 160 q 488 -24 461 28 q 531 -100 515 -75 q 549 -164 544 -125 q 531 -206 551 -194 q 483 -199 507 -217 q 442 -147 461 -183 q 339 40 368 -14 q 199 297 278 158 q 186 311 192 311 q 171 299 181 311 q 153 247 153 276 q 149 176 151 214 q 145 95 147 138 q 142 25 143 53 q 142 -15 142 13 q 140 -56 142 -43 q 122 -99 139 -83 q 82 -107 104 -114 q 48 -82 60 -100 q 35 -39 36 -64 q 38 99 33 10 q 43 211 43 189 q 69 593 46 290 q 90 772 78 714 q 112 803 94 792 q 150 814 129 815 q 177 797 164 813 q 192 763 190 781 q 191 717 193 740 q 185 660 189 693 q 179 614 181 628 q 167 469 178 604 z "},"L":{"ha":376,"x_min":17,"x_max":407,"o":"m 165 54 q 194 54 167 54 q 261 51 210 53 q 340 46 313 50 q 399 4 389 38 q 388 -43 407 -22 q 340 -61 369 -64 q 108 -54 281 -56 q 54 -50 64 -53 q 24 -10 29 -40 q 19 58 18 15 q 24 124 21 100 q 33 189 26 147 q 40 254 39 231 q 79 543 53 369 q 88 608 81 556 q 100 688 96 660 q 102 719 101 697 q 106 751 103 740 q 130 785 110 774 q 172 793 150 797 q 204 774 192 792 q 214 735 217 756 q 196 607 208 690 q 178 488 183 524 q 157 326 172 446 q 149 254 154 300 q 138 169 143 208 q 129 97 133 131 q 129 60 125 65 q 165 54 133 54 z "},"M":{"ha":672,"x_min":-11,"x_max":636,"o":"m 529 297 q 531 358 531 313 q 533 426 531 403 q 527 417 531 422 q 522 408 524 413 q 517 397 519 403 q 513 385 514 390 q 509 374 511 381 q 506 364 507 368 q 418 115 474 286 q 388 78 411 96 q 344 61 364 61 q 312 76 328 61 q 289 113 296 90 q 240 263 261 192 q 212 378 232 293 q 175 507 192 463 q 174 517 175 510 q 169 529 172 525 q 154 432 154 436 q 115 175 136 311 q 112 147 115 168 q 107 116 108 125 q 103 89 106 107 q 99 58 101 71 q 95 31 97 46 q 92 1 93 15 q 46 -51 88 -35 q 8 -43 26 -58 q -10 -6 -10 -28 q 0 104 -7 69 q 10 158 6 124 q 15 204 14 193 q 40 374 26 263 q 65 531 53 467 q 77 617 68 551 q 94 718 86 682 q 99 745 97 726 q 103 774 101 764 q 138 807 110 801 q 199 801 178 815 q 228 744 221 788 q 271 544 244 646 q 291 458 279 513 q 314 358 303 404 q 339 271 325 311 q 349 257 342 260 q 372 317 371 314 q 479 575 422 460 q 524 642 501 621 q 581 660 550 667 q 626 619 613 653 q 636 540 636 600 q 635 463 636 514 q 635 386 635 411 q 632 281 635 350 q 628 203 629 213 q 626 113 628 174 q 624 22 625 53 q 597 -37 622 -24 q 551 -42 574 -53 q 528 -4 529 -32 q 526 149 522 88 q 528 223 528 174 q 529 297 528 272 z "},"N":{"ha":554,"x_min":25,"x_max":524,"o":"m 301 369 q 350 190 328 251 q 358 222 356 200 q 389 493 363 254 q 415 713 408 660 q 422 740 417 726 q 481 774 439 782 q 510 755 499 771 q 524 719 522 739 q 513 611 524 683 q 502 516 508 582 q 490 415 496 450 q 478 314 483 375 q 465 198 472 253 q 447 97 458 143 q 433 51 442 75 q 378 6 418 11 q 314 29 339 0 q 271 108 293 53 q 233 227 254 149 q 208 319 213 306 q 189 410 190 379 q 179 435 189 426 q 174 403 176 419 q 170 373 171 386 q 168 342 169 360 q 165 313 167 324 q 151 167 160 260 q 145 101 150 153 q 138 17 140 50 q 136 -47 136 -15 q 126 -90 138 -72 q 97 -111 115 -107 q 52 -99 72 -117 q 31 -51 32 -82 q 39 133 26 15 q 45 192 42 160 q 51 251 49 225 q 56 310 53 278 q 61 368 58 343 q 103 717 89 621 q 105 730 104 721 q 106 744 106 739 q 108 757 106 750 q 115 769 111 764 q 151 787 125 783 q 192 779 176 790 q 238 704 232 750 q 244 666 240 686 q 251 627 247 646 q 258 590 254 608 q 265 551 261 572 q 272 513 269 529 q 301 369 282 454 z "},"O":{"ha":540,"x_min":13,"x_max":543,"o":"m 33 90 q 22 168 19 142 q 35 331 14 247 q 104 547 72 485 q 126 594 110 558 q 153 647 142 629 q 253 783 211 744 q 260 791 256 786 q 267 799 264 796 q 276 806 271 803 q 285 813 281 810 q 332 821 306 824 q 371 801 358 818 q 385 758 388 783 q 365 714 383 733 q 359 703 358 707 q 368 696 360 700 q 444 638 392 682 q 506 526 486 601 q 482 213 542 382 q 342 7 435 79 q 216 -45 282 -40 q 88 -3 150 -50 q 33 90 50 28 m 154 386 q 125 200 125 282 q 144 97 124 140 q 207 63 164 60 q 257 79 233 65 q 368 211 328 121 q 404 517 439 367 q 383 560 396 550 q 372 570 381 563 q 358 581 363 578 q 347 591 354 585 q 333 601 339 597 q 320 610 328 606 q 306 619 313 615 q 292 626 299 622 q 249 613 263 638 q 154 386 181 479 z "},"P":{"ha":515,"x_min":3,"x_max":514,"o":"m 100 615 q 100 633 100 617 q 49 615 67 613 q 14 649 31 618 q 12 690 4 665 q 42 726 19 714 q 97 758 60 739 q 110 778 108 765 q 128 821 110 803 q 171 840 146 839 q 214 804 197 840 q 232 793 219 793 q 433 715 354 801 q 496 589 489 658 q 418 294 514 444 q 236 68 336 167 q 181 21 200 31 q 167 -4 167 13 q 167 -35 167 -7 q 167 -69 167 -62 q 167 -99 167 -76 q 169 -134 168 -122 q 174 -164 171 -146 q 181 -197 176 -182 q 179 -239 188 -219 q 154 -265 171 -258 q 114 -262 135 -272 q 83 -232 93 -253 q 65 -168 68 -203 q 60 -17 57 -76 q 49 14 60 3 q 42 51 26 35 q 57 75 51 63 q 63 99 63 88 q 64 125 64 111 q 64 151 64 139 q 100 615 75 411 m 175 233 q 175 153 175 228 q 201 176 188 163 q 222 199 214 190 q 243 227 229 208 q 263 253 257 246 q 335 360 297 297 q 393 542 390 451 q 347 649 394 607 q 235 685 300 692 q 211 661 213 683 q 200 553 208 638 q 188 422 192 468 q 175 233 181 343 z "},"Q":{"ha":568,"x_min":22,"x_max":631,"o":"m 501 754 q 508 706 504 735 q 515 657 513 678 q 522 610 518 636 q 526 561 525 583 q 528 483 526 547 q 526 406 529 418 q 490 240 521 350 q 454 139 474 183 q 461 117 450 131 q 520 33 482 92 q 582 -54 558 -25 q 624 -139 610 -86 q 618 -170 629 -158 q 588 -179 607 -182 q 511 -126 551 -174 q 431 -15 499 -111 q 413 14 421 -3 q 399 29 404 29 q 385 15 394 29 q 268 -83 331 -61 q 68 -4 139 -131 q 31 210 24 78 q 108 507 39 354 q 207 672 156 610 q 339 786 276 760 q 363 793 357 793 q 368 794 364 793 q 374 794 372 794 q 379 795 375 794 q 385 796 383 796 q 389 797 386 796 q 394 799 392 797 q 399 801 396 800 q 403 804 401 803 q 407 808 404 806 q 411 814 410 811 q 438 825 419 825 q 467 815 456 825 q 501 754 496 792 m 226 504 q 138 176 138 331 q 138 154 138 156 q 175 28 143 69 q 240 15 203 -7 q 331 113 290 44 q 326 133 335 119 q 295 177 325 135 q 258 244 265 219 q 272 296 249 275 q 325 297 294 317 q 342 282 335 292 q 359 259 350 272 q 372 240 368 246 q 375 236 372 240 q 379 231 378 232 q 383 231 381 231 q 392 243 390 232 q 402 281 394 257 q 413 315 410 304 q 432 444 425 372 q 434 473 433 458 q 434 504 435 488 q 432 533 433 521 q 428 564 431 544 q 425 592 426 583 q 420 624 424 601 q 415 653 417 646 q 393 677 414 669 q 358 674 372 685 q 226 504 285 618 z "},"R":{"ha":540,"x_min":-3,"x_max":526,"o":"m 265 89 q 253 72 265 89 q 333 80 278 74 q 419 88 389 86 q 492 79 460 88 q 525 36 525 71 q 493 -3 526 6 q 450 -8 479 -7 q 314 -22 381 -11 q 258 -32 303 -24 q 188 -44 213 -40 q 158 -53 163 -47 q 156 -82 154 -58 q 171 -235 160 -178 q 146 -283 178 -268 q 89 -271 115 -296 q 54 -189 61 -244 q 49 -39 46 -107 q 47 -19 49 -28 q 38 -4 44 -11 q 32 32 17 15 q 47 55 42 42 q 52 80 51 68 q 53 106 53 92 q 54 131 54 119 q 89 597 65 393 q 89 611 89 599 q 85 613 85 613 q 15 610 39 582 q -1 654 -1 631 q 17 697 -1 678 q 71 732 36 715 q 87 740 82 736 q 96 751 92 743 q 99 769 100 758 q 116 800 97 783 q 154 821 135 817 q 183 813 168 822 q 203 786 197 804 q 222 774 208 774 q 424 696 344 782 q 486 568 478 638 q 407 274 503 424 q 265 89 338 164 m 169 281 q 166 235 168 265 q 163 179 164 204 q 163 129 163 154 q 279 271 213 178 q 325 342 281 272 q 383 526 383 432 q 335 632 382 590 q 222 665 288 674 q 201 646 203 663 q 197 603 200 635 q 192 554 193 571 q 169 281 169 288 z "},"S":{"ha":426,"x_min":14,"x_max":421,"o":"m 392 46 q 341 -53 383 -14 q 225 -93 299 -92 q 97 -21 140 -85 q 28 99 44 57 q 31 151 15 131 q 82 167 46 171 q 107 149 97 165 q 158 60 149 79 q 194 19 169 35 q 239 7 218 3 q 271 25 257 10 q 286 57 285 40 q 244 217 293 142 q 191 283 228 242 q 143 340 154 325 q 82 500 86 414 q 138 660 78 576 q 229 735 172 710 q 300 744 257 750 q 367 711 343 738 q 410 576 421 649 q 386 528 404 543 q 333 524 360 507 q 304 582 293 550 q 307 624 313 607 q 293 644 300 640 q 271 639 286 647 q 194 542 211 610 q 229 407 179 471 q 270 358 242 390 q 319 298 299 325 q 353 244 339 271 q 392 46 406 143 z "},"T":{"ha":458,"x_min":25,"x_max":747,"o":"m 238 -35 q 232 56 236 -29 q 240 356 238 257 q 242 453 240 401 q 247 568 244 506 q 250 667 249 631 q 249 681 250 676 q 242 688 247 686 q 228 690 238 690 q 178 688 217 690 q 129 685 140 685 q 79 686 118 685 q 45 699 57 689 q 29 731 33 708 q 35 762 25 743 q 57 783 44 781 q 103 789 94 790 q 194 793 151 783 q 219 794 203 794 q 244 794 236 793 q 265 806 258 799 q 339 815 300 846 q 390 801 358 800 q 451 806 403 801 q 525 810 499 810 q 575 810 540 810 q 636 810 610 811 q 686 804 663 808 q 719 794 706 801 q 746 754 746 779 q 722 721 746 739 q 653 706 697 703 q 371 699 547 711 q 357 683 357 699 q 354 648 356 672 q 353 611 353 624 q 343 261 347 425 q 338 35 339 139 q 340 -25 338 32 q 340 -33 340 -33 q 300 -92 338 -90 q 259 -76 278 -93 q 238 -35 240 -60 z "},"U":{"ha":611,"x_min":11,"x_max":599,"o":"m 449 75 q 450 146 449 88 q 456 239 451 204 q 431 204 438 228 q 313 -10 396 99 q 165 -75 254 -87 q 108 -43 139 -72 q 43 99 64 0 q 53 465 11 254 q 129 743 88 642 q 156 773 136 763 q 196 778 176 783 q 226 756 217 772 q 231 718 236 740 q 217 668 225 696 q 200 612 208 640 q 186 563 192 583 q 138 253 140 392 q 165 61 135 142 q 178 39 169 51 q 215 35 196 14 q 319 194 288 108 q 349 262 329 218 q 376 324 368 306 q 410 426 403 390 q 431 497 415 451 q 450 561 446 542 q 463 606 456 581 q 478 655 471 631 q 490 700 486 679 q 501 719 493 711 q 520 733 508 728 q 546 738 532 738 q 576 726 561 738 q 593 697 590 714 q 597 660 596 665 q 594 622 597 654 q 590 583 590 589 q 579 474 588 554 q 568 349 571 393 q 557 -35 553 125 q 547 -76 557 -60 q 519 -93 536 -92 q 470 -79 489 -94 q 449 -37 451 -64 q 449 75 446 25 z "},"V":{"ha":407,"x_min":39,"x_max":443,"o":"m 160 243 q 174 136 167 204 q 201 213 185 153 q 281 471 258 407 q 293 508 286 486 q 306 546 300 529 q 318 583 311 563 q 332 619 325 603 q 383 683 351 671 q 438 657 428 700 q 435 600 443 633 q 421 554 429 578 q 402 502 413 531 q 386 457 392 474 q 296 160 342 325 q 231 -90 243 -28 q 202 -125 225 -118 q 156 -115 179 -132 q 94 -29 103 -76 q 88 17 92 -12 q 83 56 85 46 q 72 158 79 92 q 63 254 65 225 q 52 365 57 292 q 43 472 47 438 q 40 579 42 482 q 40 753 39 729 q 75 810 42 794 q 123 804 104 822 q 139 763 142 786 q 136 708 136 719 q 138 654 136 696 q 142 600 140 613 q 141 552 142 586 q 142 504 140 518 q 149 379 143 413 q 155 310 153 356 q 160 243 157 265 z "},"W":{"ha":864,"x_min":29,"x_max":917,"o":"m 143 74 q 149 1 142 39 q 182 53 181 50 q 349 376 283 239 q 381 444 358 396 q 421 528 403 493 q 458 596 439 564 q 473 617 467 610 q 491 633 479 625 q 517 640 503 640 q 578 594 563 640 q 588 531 588 563 q 588 196 588 265 q 604 56 589 117 q 625 89 615 64 q 642 137 635 111 q 659 193 650 163 q 674 242 668 224 q 693 307 683 272 q 714 385 703 342 q 732 451 725 428 q 817 765 761 556 q 832 794 822 782 q 856 812 842 807 q 883 813 869 817 q 901 800 893 810 q 912 776 908 790 q 915 746 915 763 q 910 723 914 738 q 904 706 906 708 q 889 644 897 676 q 874 584 881 613 q 858 524 867 556 q 841 463 849 492 q 825 402 833 435 q 810 342 817 369 q 740 103 782 233 q 663 -46 710 4 q 614 -75 642 -68 q 558 -68 586 -82 q 517 -21 531 -54 q 486 122 494 31 q 481 209 482 164 q 480 315 479 254 q 481 403 481 375 q 466 381 472 393 q 456 360 460 369 q 446 338 451 351 q 436 317 440 325 q 367 179 426 297 q 265 -7 310 68 q 193 -112 219 -85 q 107 -147 151 -158 q 46 -74 57 -133 q 40 122 29 10 q 76 344 53 242 q 156 640 121 539 q 219 811 193 744 q 253 847 231 838 q 285 857 272 858 q 314 839 297 856 q 324 781 340 815 q 225 506 272 675 q 143 74 156 257 z "},"X":{"ha":515,"x_min":-22,"x_max":549,"o":"m 286 240 q 272 257 279 256 q 188 99 256 226 q 89 -100 121 -29 q 46 -149 72 -135 q -1 -147 22 -162 q -19 -106 -22 -133 q 14 -10 -15 -68 q 153 256 46 54 q 214 371 206 357 q 214 393 221 381 q 93 658 210 403 q 82 672 89 669 q 60 685 67 678 q 53 705 54 693 q 53 735 51 717 q 94 783 54 774 q 156 757 128 792 q 185 706 169 740 q 204 665 200 672 q 241 585 217 640 q 281 504 265 531 q 297 525 288 507 q 389 688 375 663 q 439 765 415 733 q 483 791 456 789 q 531 772 510 793 q 542 742 540 761 q 532 711 543 724 q 498 666 514 690 q 463 606 482 642 q 436 557 444 571 q 385 466 417 525 q 343 389 353 407 q 342 367 338 378 q 417 200 389 261 q 455 118 421 190 q 503 7 489 46 q 520 -31 508 -6 q 535 -61 532 -56 q 528 -125 547 -90 q 476 -136 511 -151 q 466 -130 471 -133 q 458 -124 461 -126 q 450 -116 454 -121 q 444 -108 446 -111 q 439 -99 443 -106 q 434 -90 435 -92 q 430 -80 433 -87 q 425 -71 426 -72 q 332 136 399 -14 q 317 168 325 150 q 301 206 310 186 q 286 240 292 226 z "},"Y":{"ha":583,"x_min":33,"x_max":550,"o":"m 411 344 q 411 356 411 344 q 376 301 388 324 q 290 178 342 236 q 175 115 238 121 q 109 133 140 113 q 63 185 78 153 q 36 328 33 246 q 47 454 39 424 q 63 525 51 474 q 84 613 74 576 q 111 682 94 650 q 127 719 117 692 q 146 758 138 746 q 176 788 157 778 q 210 793 194 799 q 240 764 231 785 q 242 718 250 743 q 215 661 233 686 q 202 638 208 651 q 193 615 196 624 q 185 588 190 607 q 179 564 181 569 q 140 335 146 449 q 154 244 139 292 q 190 233 164 215 q 206 245 199 239 q 220 260 213 251 q 232 274 228 269 q 244 290 236 279 q 254 306 251 301 q 265 324 257 310 q 275 340 274 338 q 354 493 300 378 q 372 534 363 513 q 391 582 381 556 q 407 622 401 608 q 443 693 429 675 q 507 710 465 719 q 543 661 536 701 q 539 528 550 625 q 513 292 517 321 q 494 96 511 278 q 481 -73 489 36 q 469 -217 472 -182 q 458 -378 460 -336 q 422 -439 458 -422 q 386 -442 403 -449 q 363 -417 369 -436 q 356 -319 350 -389 q 381 4 365 -169 q 390 111 385 40 q 399 238 394 182 q 411 344 404 294 z "},"Z":{"ha":510,"x_min":26,"x_max":689,"o":"m 396 -71 q 418 -73 403 -71 q 440 -75 433 -75 q 461 -74 447 -75 q 633 -89 613 -87 q 666 -102 651 -90 q 683 -128 681 -114 q 687 -158 688 -142 q 672 -185 686 -174 q 625 -197 653 -200 q 478 -185 575 -190 q 335 -174 381 -179 q 129 -124 197 -157 q 74 -65 93 -107 q 64 15 54 -24 q 142 214 78 82 q 210 350 147 224 q 247 419 221 372 q 285 493 272 467 q 303 528 290 503 q 325 573 317 554 q 339 610 333 592 q 354 646 344 628 q 340 668 368 669 q 239 657 274 665 q 118 619 224 653 q 74 619 93 611 q 46 650 54 628 q 81 721 28 701 q 358 775 243 779 q 444 738 411 774 q 454 632 476 701 q 411 519 438 578 q 399 497 406 508 q 388 474 393 485 q 376 452 382 463 q 364 430 371 442 q 353 408 357 418 q 228 161 246 201 q 208 124 222 151 q 186 76 194 96 q 172 36 178 56 q 170 32 171 35 q 169 28 169 29 q 166 -16 160 -4 q 201 -37 172 -28 q 396 -71 278 -64 z "},"a":{"ha":443,"x_min":17,"x_max":457,"o":"m 453 -36 q 449 -67 456 -51 q 427 -90 442 -82 q 397 -94 413 -97 q 371 -79 381 -90 q 342 -12 349 -51 q 299 196 333 32 q 294 222 296 204 q 288 254 292 239 q 279 283 285 269 q 229 203 264 251 q 186 139 194 154 q 124 95 164 103 q 56 113 85 88 q 33 151 40 125 q 40 294 18 210 q 157 499 74 413 q 294 529 219 564 q 335 450 332 513 q 345 424 336 435 q 360 400 354 413 q 371 365 365 388 q 378 338 376 342 q 398 231 388 301 q 417 129 408 161 q 436 31 431 76 q 453 -36 438 22 m 147 267 q 226 411 210 360 q 175 344 200 390 q 147 267 150 299 z "},"b":{"ha":421,"x_min":24,"x_max":424,"o":"m 386 338 q 321 93 424 210 q 197 32 281 47 q 175 26 175 28 q 158 24 169 26 q 142 20 147 22 q 131 10 138 18 q 125 -10 125 3 q 110 -36 124 -26 q 76 -42 96 -46 q 32 3 42 -36 q 25 43 26 22 q 26 94 24 64 q 28 133 28 124 q 38 325 28 150 q 36 325 36 325 q 51 549 51 539 q 88 826 60 664 q 147 871 96 875 q 179 856 165 869 q 194 824 193 842 q 188 795 194 813 q 181 774 182 778 q 168 708 172 738 q 144 490 154 599 q 145 474 144 485 q 144 458 146 464 q 158 453 144 449 q 163 454 161 454 q 278 454 222 474 q 386 338 360 426 m 151 128 q 249 172 218 139 q 288 276 279 206 q 268 335 288 313 q 214 357 249 357 q 151 339 189 358 q 133 308 133 329 q 126 154 131 224 q 126 128 124 131 q 151 128 129 125 z "},"c":{"ha":361,"x_min":26,"x_max":336,"o":"m 333 151 q 311 119 336 133 q 188 96 264 89 q 74 147 113 103 q 28 281 28 200 q 85 501 31 397 q 175 588 115 560 q 219 586 190 594 q 263 563 249 578 q 289 525 279 544 q 263 451 314 475 q 249 447 256 447 q 236 450 242 447 q 226 456 231 453 q 217 464 222 458 q 208 471 211 469 q 197 476 200 476 q 188 468 193 475 q 140 343 156 426 q 135 260 129 282 q 160 214 143 226 q 214 203 178 201 q 254 211 232 204 q 333 151 324 232 z "},"d":{"ha":457,"x_min":13,"x_max":433,"o":"m 386 856 q 419 840 407 854 q 432 804 432 826 q 430 760 431 788 q 428 708 429 732 q 424 663 426 683 q 415 529 415 581 q 413 449 417 501 q 408 374 408 396 q 405 249 408 338 q 401 113 401 161 q 403 75 401 100 q 404 38 404 50 q 401 1 404 26 q 369 -53 399 -22 q 336 -55 358 -65 q 307 -25 314 -44 q 300 54 300 -6 q 300 196 300 67 q 297 197 299 196 q 293 197 294 197 q 279 170 288 189 q 268 146 271 151 q 210 60 247 108 q 133 14 179 18 q 49 44 86 10 q 26 85 32 63 q 18 139 19 108 q 89 414 14 282 q 188 515 131 486 q 304 501 250 547 q 313 497 304 501 q 318 617 311 540 q 326 725 325 693 q 338 814 326 775 q 357 845 342 832 q 386 856 372 858 m 263 381 q 263 394 267 390 q 208 399 238 426 q 199 388 203 393 q 128 214 147 319 q 128 122 117 154 q 141 139 132 129 q 156 157 150 149 q 167 172 163 165 q 263 381 185 207 z "},"e":{"ha":386,"x_min":35,"x_max":382,"o":"m 163 219 q 157 222 161 219 q 150 223 153 224 q 146 219 147 222 q 150 197 142 210 q 224 149 175 163 q 239 144 228 147 q 256 140 250 142 q 270 133 263 139 q 283 121 278 128 q 297 89 293 107 q 294 58 300 71 q 243 38 278 32 q 83 115 139 51 q 39 292 36 172 q 41 321 39 299 q 43 358 43 343 q 40 399 43 372 q 44 428 38 414 q 62 451 50 442 q 89 464 74 461 q 118 483 107 469 q 235 542 157 531 q 315 517 275 549 q 367 442 356 485 q 352 335 381 390 q 270 247 324 279 q 163 219 217 214 m 158 365 q 155 338 149 349 q 182 328 161 328 q 225 347 201 326 q 260 393 249 367 q 253 432 269 417 q 214 435 239 444 q 193 422 203 431 q 179 406 183 413 q 168 384 175 399 q 158 365 161 369 z "},"f":{"ha":339,"x_min":17,"x_max":401,"o":"m 394 589 q 383 551 400 571 q 342 528 365 531 q 308 522 325 526 q 270 510 290 517 q 238 501 250 504 q 217 479 219 497 q 201 338 203 375 q 202 324 200 326 q 217 324 204 321 q 276 304 247 336 q 281 253 292 289 q 276 243 279 247 q 271 238 272 239 q 263 232 269 236 q 256 226 256 228 q 213 203 226 206 q 203 201 207 203 q 198 197 200 199 q 194 193 196 196 q 190 189 192 190 q 188 183 189 188 q 187 176 188 178 q 185 169 186 175 q 185 163 185 164 q 180 112 182 139 q 177 51 178 85 q 176 0 176 17 q 176 -35 175 -10 q 176 -68 176 -60 q 144 -118 175 -111 q 90 -85 113 -125 q 78 -50 82 -69 q 74 -17 74 -31 q 75 19 74 -4 q 76 54 76 43 q 81 129 76 64 q 67 146 82 144 q 27 175 38 149 q 36 225 17 201 q 56 243 49 240 q 94 303 93 258 q 101 371 96 322 q 108 447 107 419 q 61 436 81 433 q 29 453 39 438 q 26 489 19 468 q 94 557 42 531 q 146 590 132 574 q 190 599 158 606 q 213 600 203 596 q 244 613 228 608 q 287 622 261 617 q 321 629 313 626 q 367 623 347 635 q 394 589 388 611 z "},"g":{"ha":378,"x_min":22,"x_max":374,"o":"m 353 389 q 367 318 374 364 q 328 97 363 293 q 288 -139 292 -107 q 269 -262 281 -200 q 249 -300 264 -287 q 213 -310 233 -312 q 165 -247 160 -301 q 172 -187 167 -226 q 181 -129 178 -149 q 195 -36 183 -97 q 210 54 207 25 q 215 87 213 69 q 222 118 218 104 q 229 151 225 132 q 236 185 233 171 q 238 203 236 185 q 192 146 196 150 q 140 96 158 108 q 58 94 97 69 q 24 165 24 115 q 85 393 24 271 q 182 532 128 482 q 279 578 232 579 q 319 565 301 578 q 346 529 338 551 q 354 460 360 490 q 349 439 351 442 q 339 428 342 433 q 335 421 336 424 q 336 413 333 418 q 340 405 339 407 q 347 397 342 403 q 353 389 351 390 m 217 343 q 228 358 219 346 q 242 374 238 369 q 254 387 246 378 q 270 402 263 396 q 286 414 278 408 q 277 424 283 417 q 267 434 271 431 q 260 444 264 438 q 254 460 257 451 q 153 269 174 361 q 217 343 178 296 z "},"h":{"ha":435,"x_min":18,"x_max":422,"o":"m 413 -172 q 379 -237 421 -228 q 340 -230 360 -243 q 315 -197 321 -217 q 304 -118 307 -161 q 303 -39 301 -75 q 303 40 304 -3 q 297 176 299 156 q 297 219 296 190 q 297 263 297 247 q 291 306 296 278 q 286 346 286 333 q 261 358 283 369 q 203 315 228 340 q 193 303 199 311 q 183 291 188 296 q 173 281 179 286 q 158 274 167 276 q 150 257 151 272 q 138 178 150 251 q 126 61 135 160 q 120 17 125 46 q 114 -19 115 -11 q 91 -56 111 -46 q 47 -56 71 -67 q 22 -12 24 -44 q 33 119 18 26 q 37 148 35 128 q 40 178 39 168 q 56 288 54 257 q 68 361 58 314 q 79 424 78 408 q 113 631 97 543 q 138 810 118 665 q 144 845 139 822 q 150 879 149 868 q 174 913 154 899 q 211 924 194 928 q 245 897 235 918 q 249 850 256 875 q 225 714 228 776 q 220 674 224 694 q 210 626 217 653 q 201 586 203 599 q 194 538 197 568 q 188 481 192 508 q 175 429 183 453 q 229 457 217 451 q 343 442 274 475 q 354 428 350 439 q 393 299 388 356 q 399 131 399 235 q 400 1 399 129 q 413 -172 400 -104 z "},"i":{"ha":200,"x_min":38,"x_max":161,"o":"m 96 529 q 128 519 114 528 q 151 499 143 511 q 158 474 158 486 q 153 286 154 418 q 149 207 151 265 q 147 118 147 149 q 146 49 149 94 q 103 0 144 4 q 65 10 82 -1 q 44 40 49 21 q 41 95 39 47 q 43 150 43 143 q 43 261 43 158 q 44 330 43 283 q 47 412 46 376 q 53 481 49 447 q 67 517 54 504 q 96 529 79 531 m 94 617 q 67 633 81 617 q 51 668 53 650 q 67 720 50 699 q 110 742 83 742 q 144 726 132 742 q 158 683 157 711 q 142 636 160 654 q 94 617 124 618 z "},"j":{"ha":206,"x_min":-110,"x_max":172,"o":"m 167 328 q 167 292 165 317 q 168 256 169 268 q 164 215 165 238 q 162 174 163 192 q 159 133 161 156 q 154 93 157 111 q 145 39 151 78 q 133 -22 139 0 q 72 -158 121 -79 q 31 -206 60 -176 q -8 -249 3 -235 q -78 -268 -36 -286 q -103 -241 -97 -261 q -99 -201 -110 -221 q -77 -174 -89 -187 q -49 -143 -65 -160 q -26 -117 -33 -126 q 33 -6 7 -79 q 53 68 46 28 q 62 137 60 108 q 67 213 64 165 q 71 283 69 261 q 74 344 74 311 q 74 403 75 378 q 74 465 74 429 q 74 525 74 501 q 90 579 74 558 q 133 592 106 599 q 163 563 153 588 q 168 538 167 551 q 170 516 169 525 q 171 489 171 507 q 171 461 171 471 q 170 403 171 451 q 167 328 169 356 m 92 635 q 42 669 53 640 q 48 734 32 696 q 86 783 64 772 q 111 789 97 789 q 151 772 138 788 q 160 731 164 757 q 129 651 153 688 q 92 635 117 631 z "},"k":{"ha":493,"x_min":-6,"x_max":517,"o":"m 481 119 q 458 33 515 67 q 429 30 446 25 q 400 50 413 35 q 349 124 382 76 q 307 183 315 172 q 232 279 256 257 q 209 294 217 294 q 185 281 201 294 q 168 264 175 274 q 158 247 161 254 q 153 227 154 240 q 151 208 151 214 q 151 186 151 201 q 151 165 151 171 q 149 -43 150 18 q 106 -99 147 -75 q 76 -95 92 -106 q 53 -65 60 -85 q 47 -41 49 -56 q 44 -21 44 -26 q 45 6 44 -15 q 46 28 46 26 q 45 74 46 32 q 47 121 44 117 q 28 144 49 135 q 2 175 8 153 q 8 215 -4 197 q 43 267 42 267 q 48 278 46 272 q 51 290 50 283 q 51 303 51 297 q 51 316 51 308 q 50 328 50 324 q 51 446 50 346 q 57 621 53 550 q 72 803 64 726 q 81 883 75 818 q 111 931 83 911 q 157 934 136 946 q 182 897 178 922 q 183 881 183 889 q 183 864 183 872 q 181 848 182 856 q 179 831 181 840 q 178 815 178 822 q 157 504 160 589 q 157 390 157 499 q 188 417 172 397 q 261 482 211 446 q 285 503 272 490 q 310 528 297 515 q 335 550 324 542 q 390 583 354 565 q 439 567 418 596 q 447 532 450 550 q 432 501 444 514 q 331 417 424 494 q 326 414 328 414 q 318 405 324 410 q 309 397 313 400 q 301 388 306 393 q 296 378 297 382 q 298 364 293 369 q 311 352 303 358 q 322 342 319 346 q 481 119 407 235 z "},"l":{"ha":208,"x_min":47,"x_max":165,"o":"m 160 688 q 158 635 158 665 q 158 576 158 604 q 154 524 157 547 q 150 407 150 482 q 150 311 150 332 q 152 244 149 289 q 156 178 156 200 q 156 122 154 156 q 158 65 157 88 q 157 7 158 42 q 125 -40 154 -32 q 68 -12 92 -51 q 58 15 61 0 q 56 45 56 29 q 54 67 56 61 q 49 457 47 258 q 50 506 49 479 q 53 563 51 532 q 56 611 54 594 q 56 654 56 618 q 60 710 57 690 q 64 857 60 719 q 79 889 64 874 q 111 904 94 904 q 142 890 128 904 q 160 856 156 876 q 164 824 163 840 q 165 788 165 807 q 164 756 164 768 q 162 720 164 744 q 160 688 160 696 z "},"m":{"ha":838,"x_min":33,"x_max":815,"o":"m 811 86 q 806 48 814 64 q 782 26 799 32 q 744 31 764 21 q 714 58 725 40 q 706 81 708 69 q 701 111 703 92 q 700 135 700 131 q 668 413 696 163 q 665 432 668 413 q 611 364 614 367 q 539 255 582 328 q 481 158 496 182 q 449 132 468 142 q 414 126 431 122 q 379 150 394 131 q 361 194 364 169 q 350 357 356 236 q 344 399 350 358 q 303 347 338 389 q 253 281 268 306 q 164 136 238 254 q 143 93 146 107 q 122 66 138 78 q 92 54 106 54 q 42 100 53 57 q 39 179 33 126 q 72 507 57 394 q 75 563 75 522 q 92 618 76 592 q 128 644 104 642 q 169 626 151 646 q 186 586 185 610 q 185 543 188 563 q 175 452 182 513 q 165 364 168 392 q 162 353 165 361 q 159 338 158 344 q 165 326 160 332 q 217 394 214 392 q 235 420 224 404 q 255 447 247 436 q 274 470 263 457 q 296 494 285 483 q 349 531 325 521 q 442 475 415 560 q 451 435 449 456 q 456 378 454 414 q 458 336 457 343 q 463 324 458 325 q 476 335 469 328 q 488 353 482 343 q 497 369 493 364 q 529 416 507 382 q 565 467 551 450 q 656 547 611 522 q 694 551 672 556 q 731 532 717 547 q 769 450 760 500 q 801 179 778 403 q 811 86 801 171 z "},"n":{"ha":465,"x_min":22,"x_max":439,"o":"m 433 54 q 435 22 433 44 q 438 -10 438 0 q 436 -42 438 -19 q 394 -86 429 -81 q 361 -78 376 -87 q 338 -51 346 -69 q 329 -10 329 -36 q 318 283 321 229 q 317 310 317 294 q 317 338 317 326 q 315 366 317 350 q 310 396 314 382 q 251 304 256 311 q 204 228 238 282 q 153 144 171 174 q 132 124 144 132 q 106 113 119 115 q 79 113 93 110 q 45 136 58 118 q 31 179 32 154 q 38 457 24 294 q 41 503 39 472 q 44 550 43 535 q 61 585 46 568 q 94 604 76 601 q 144 578 126 608 q 151 560 150 571 q 153 544 153 550 q 151 524 153 538 q 149 507 149 510 q 139 321 140 404 q 153 328 147 318 q 176 372 163 350 q 210 423 190 394 q 239 465 229 451 q 297 533 269 513 q 354 542 322 551 q 399 504 386 533 q 421 385 418 464 q 426 279 424 339 q 429 160 428 219 q 433 54 431 101 z "},"o":{"ha":392,"x_min":24,"x_max":385,"o":"m 299 486 q 363 430 342 465 q 379 349 385 394 q 251 75 360 182 q 119 40 196 19 q 32 135 51 58 q 25 192 24 171 q 65 361 25 269 q 107 440 85 408 q 113 463 111 447 q 117 483 115 479 q 131 504 124 503 q 160 517 140 508 q 195 532 179 526 q 226 538 211 538 q 276 506 257 539 q 299 486 283 493 m 278 356 q 258 394 281 375 q 218 410 236 414 q 207 403 213 408 q 131 204 139 299 q 133 173 133 175 q 134 167 133 171 q 135 162 135 164 q 138 157 136 160 q 140 152 139 154 q 144 148 142 150 q 150 144 146 146 q 188 157 171 140 q 278 356 261 235 z "},"p":{"ha":346,"x_min":-29,"x_max":343,"o":"m 301 533 q 318 328 342 447 q 275 223 306 271 q 194 121 244 175 q 175 101 188 114 q 157 82 163 88 q 149 68 151 76 q 146 55 146 60 q 147 40 146 50 q 147 26 147 29 q 149 -60 149 -1 q 151 -165 150 -119 q 157 -253 153 -211 q 148 -285 158 -268 q 125 -307 138 -303 q 71 -287 96 -317 q 50 -214 49 -262 q 44 -10 44 -54 q 33 6 46 4 q -11 28 7 8 q -24 68 -28 46 q 3 99 -21 90 q 38 125 29 107 q 44 171 46 143 q 46 379 42 215 q 43 428 47 411 q 45 476 39 444 q 51 511 51 508 q 75 756 57 575 q 97 796 76 781 q 142 807 117 811 q 168 794 157 806 q 181 765 179 782 q 175 693 185 725 q 169 668 171 681 q 167 637 168 656 q 165 611 167 618 q 181 601 165 597 q 301 533 260 624 m 217 376 q 210 475 225 425 q 201 491 206 488 q 181 486 197 494 q 153 424 147 461 q 151 402 153 417 q 150 383 150 388 q 150 235 150 364 q 217 376 201 279 z "},"q":{"ha":457,"x_min":17,"x_max":482,"o":"m 475 -90 q 461 -146 481 -122 q 413 -164 438 -172 q 372 -112 378 -154 q 361 -11 367 -68 q 349 103 356 46 q 338 204 343 160 q 314 350 325 313 q 249 251 253 257 q 157 168 207 193 q 91 158 128 151 q 33 197 54 165 q 18 265 17 219 q 54 399 19 313 q 146 549 83 471 q 301 646 214 632 q 345 633 318 649 q 379 599 372 617 q 386 517 399 556 q 388 492 381 499 q 396 478 392 486 q 403 465 400 471 q 408 450 406 460 q 411 435 410 440 q 414 420 413 431 q 417 404 415 410 q 442 221 431 326 q 465 -6 465 -6 q 475 -90 468 -43 m 290 504 q 294 510 293 507 q 294 515 294 513 q 292 521 293 518 q 290 527 292 524 q 288 532 288 531 q 276 532 285 540 q 236 499 240 504 q 156 375 178 424 q 149 360 154 371 q 142 344 144 350 q 135 329 139 339 q 130 313 132 319 q 126 296 128 306 q 125 276 125 286 q 181 339 154 296 q 206 381 190 354 q 233 425 222 407 q 259 465 243 443 q 290 504 275 488 z "},"r":{"ha":435,"x_min":28,"x_max":467,"o":"m 438 446 q 433 376 467 406 q 395 367 421 365 q 357 383 369 369 q 318 429 353 386 q 299 426 307 443 q 260 350 289 403 q 219 267 231 297 q 203 228 214 250 q 183 185 192 206 q 168 146 174 164 q 128 94 160 114 q 74 92 101 81 q 40 133 47 104 q 34 174 36 151 q 31 210 32 197 q 30 253 31 222 q 29 290 29 283 q 32 360 29 313 q 50 408 32 385 q 92 418 68 431 q 138 357 140 394 q 140 335 138 356 q 162 369 151 351 q 185 417 172 388 q 203 454 199 447 q 253 531 217 483 q 303 557 272 556 q 360 536 335 558 q 438 446 397 503 z "},"s":{"ha":296,"x_min":-49,"x_max":304,"o":"m 171 504 q 129 429 136 471 q 139 393 125 407 q 163 369 143 389 q 193 339 182 349 q 260 228 249 289 q 245 146 268 192 q 181 79 222 100 q 42 51 103 40 q 21 53 33 53 q 0 53 8 53 q -28 68 -12 54 q -46 94 -43 82 q -40 126 -49 108 q -18 149 -31 144 q 28 151 -17 149 q 50 149 38 149 q 71 150 63 149 q 94 155 79 151 q 117 160 110 158 q 151 179 138 164 q 158 211 164 194 q 128 257 151 238 q 42 351 71 303 q 33 465 15 397 q 90 563 51 525 q 226 607 154 625 q 278 570 254 600 q 303 513 303 540 q 283 474 304 488 q 239 472 263 461 q 196 503 206 488 q 171 504 186 519 z "},"t":{"ha":207,"x_min":-140,"x_max":336,"o":"m 290 682 q 318 615 335 646 q 289 597 311 603 q 246 596 267 590 q 215 603 235 599 q 185 610 194 607 q 172 608 175 613 q 171 594 168 603 q 174 574 174 585 q 172 549 174 564 q 171 529 171 535 q 169 490 169 513 q 168 446 168 468 q 168 407 168 424 q 167 308 167 385 q 163 211 168 232 q 163 178 161 200 q 165 147 165 157 q 146 81 163 100 q 137 71 139 74 q 127 63 135 68 q 115 58 119 57 q 101 60 111 60 q 68 103 74 68 q 64 157 63 139 q 66 210 64 163 q 68 283 68 258 q 69 372 68 336 q 71 526 69 376 q 72 621 72 593 q 70 628 72 625 q 67 631 68 631 q 60 632 65 632 q 53 632 54 632 q -18 633 38 635 q -89 633 -74 632 q -122 649 -107 633 q -137 683 -136 664 q -128 717 -139 701 q -99 735 -117 732 q 13 742 -47 744 q 67 747 58 739 q 76 800 75 754 q 78 825 78 811 q 78 853 78 839 q 79 878 79 867 q 122 925 82 922 q 152 913 138 925 q 169 882 167 900 q 172 821 175 842 q 174 740 171 799 q 194 717 175 721 q 290 682 263 704 z "},"u":{"ha":517,"x_min":25,"x_max":482,"o":"m 469 194 q 479 111 481 133 q 462 70 476 88 q 431 53 447 53 q 397 70 413 53 q 379 111 381 88 q 358 238 374 178 q 296 156 331 196 q 214 86 263 117 q 153 66 185 69 q 90 78 121 63 q 43 128 60 93 q 28 193 29 157 q 31 258 26 229 q 31 285 31 263 q 33 319 32 308 q 68 446 50 404 q 99 521 74 457 q 157 564 113 551 q 189 555 174 568 q 203 524 204 542 q 189 474 203 500 q 132 194 122 353 q 163 181 135 163 q 254 279 213 215 q 328 378 307 356 q 400 403 364 414 q 447 347 436 392 q 460 267 453 319 q 469 194 467 214 z "},"v":{"ha":428,"x_min":-10,"x_max":469,"o":"m 457 532 q 468 503 467 522 q 460 471 469 483 q 374 329 419 417 q 290 153 321 228 q 244 51 269 103 q 233 13 239 39 q 219 -28 226 -14 q 187 -59 210 -46 q 147 -68 164 -72 q 100 -21 111 -62 q 15 354 63 103 q 7 392 14 363 q -3 439 0 422 q 17 510 -8 488 q 62 520 36 526 q 92 490 88 514 q 103 438 97 465 q 115 378 108 411 q 124 328 121 346 q 167 139 147 211 q 210 219 189 163 q 254 314 222 254 q 292 385 286 374 q 365 503 313 429 q 401 535 378 519 q 457 532 433 556 z "},"w":{"ha":738,"x_min":24,"x_max":756,"o":"m 733 525 q 750 481 756 507 q 740 427 747 468 q 728 367 732 386 q 716 316 724 349 q 699 258 708 283 q 678 207 689 232 q 608 113 643 135 q 538 91 572 88 q 465 131 503 94 q 450 147 457 139 q 437 167 443 156 q 426 187 431 179 q 417 210 422 194 q 410 231 411 225 q 403 255 408 236 q 396 277 397 274 q 394 289 394 281 q 392 302 393 297 q 386 307 390 307 q 360 281 375 307 q 238 103 310 193 q 156 51 206 64 q 103 58 132 46 q 58 94 74 71 q 33 152 40 124 q 24 238 25 181 q 100 535 35 403 q 138 569 113 560 q 185 564 164 578 q 211 523 206 550 q 203 478 217 496 q 194 469 200 474 q 185 460 189 465 q 178 450 181 456 q 165 415 171 435 q 155 381 158 396 q 147 344 151 365 q 139 308 142 322 q 135 172 121 240 q 160 164 140 144 q 193 210 168 174 q 342 443 297 364 q 381 485 356 468 q 430 489 403 499 q 464 454 457 479 q 477 394 469 433 q 488 342 485 356 q 495 312 490 335 q 503 278 500 289 q 512 251 506 268 q 525 221 518 233 q 528 214 526 218 q 533 207 531 210 q 537 201 535 204 q 542 197 539 199 q 547 196 544 196 q 571 224 558 197 q 628 397 615 314 q 635 429 631 407 q 640 464 639 451 q 674 532 646 499 q 701 540 682 542 q 733 525 719 538 z "},"x":{"ha":311,"x_min":0,"x_max":325,"o":"m 226 444 q 280 469 258 471 q 313 453 301 467 q 321 418 324 440 q 293 361 315 382 q 268 335 281 350 q 241 301 256 321 q 218 271 226 281 q 215 244 210 260 q 286 50 244 168 q 288 10 293 29 q 269 -15 283 -10 q 220 -16 244 -25 q 186 18 196 -7 q 146 125 181 31 q 138 139 142 138 q 126 126 133 139 q 106 81 107 83 q 63 53 86 50 q 22 83 39 56 q 22 158 1 117 q 85 263 38 188 q 86 299 93 278 q 31 463 44 418 q 27 512 21 492 q 54 538 33 532 q 100 531 76 544 q 132 493 124 517 q 149 440 149 442 q 167 394 150 438 q 226 444 222 440 z "},"y":{"ha":450,"x_min":24,"x_max":421,"o":"m 408 422 q 417 336 419 389 q 400 92 404 168 q 396 -201 394 -81 q 397 -222 396 -208 q 398 -247 399 -236 q 394 -267 397 -258 q 375 -292 390 -279 q 326 -292 356 -308 q 293 -247 296 -275 q 289 -103 288 -206 q 293 94 290 29 q 301 226 293 103 q 294 225 294 225 q 282 201 290 213 q 262 176 274 189 q 244 156 250 163 q 121 83 194 82 q 75 107 97 85 q 33 215 40 142 q 63 453 25 317 q 81 503 74 493 q 147 525 106 542 q 173 503 164 519 q 178 468 182 488 q 163 406 172 446 q 149 347 153 365 q 142 218 135 285 q 147 201 142 218 q 167 222 157 210 q 183 242 178 233 q 198 265 189 251 q 213 286 207 278 q 285 397 261 353 q 325 446 300 424 q 373 458 346 465 q 408 422 400 450 z "},"z":{"ha":697,"x_min":14,"x_max":703,"o":"m 669 219 q 697 192 690 210 q 692 154 703 175 q 610 104 671 121 q 339 50 488 71 q 290 42 324 47 q 231 33 256 36 q 182 29 206 29 q 126 28 157 25 q 72 49 94 32 q 49 133 28 85 q 96 203 65 175 q 206 307 135 240 q 296 393 276 374 q 311 411 297 393 q 171 396 213 403 q 82 375 103 385 q 50 378 72 369 q 22 397 28 388 q 17 428 14 408 q 31 460 21 449 q 69 487 47 479 q 128 499 92 494 q 292 518 228 514 q 365 521 324 524 q 433 497 406 518 q 456 462 450 485 q 453 419 461 439 q 388 338 436 385 q 278 235 350 303 q 199 158 207 167 q 182 139 197 158 q 185 135 185 136 q 353 161 343 160 q 629 221 514 188 q 669 219 650 226 z "},"":{"ha":272,"x_min":0,"x_max":0,"o":""},"":{"ha":0,"x_min":0,"x_max":0,"o":""},"":{"ha":369,"x_min":50,"x_max":343,"o":"m 140 957 q 169 914 174 954 q 167 871 168 894 q 166 822 167 847 q 164 778 165 797 q 149 336 144 486 q 150 178 151 201 q 153 -36 147 93 q 153 -144 156 -96 q 142 -180 153 -167 q 114 -193 131 -193 q 83 -179 97 -193 q 65 -146 68 -165 q 56 -6 60 -117 q 54 24 56 0 q 53 61 53 49 q 53 143 54 83 q 54 224 53 203 q 51 278 54 228 q 53 278 51 278 q 54 278 54 278 q 54 446 54 435 q 56 499 54 471 q 58 563 57 528 q 60 617 60 597 q 65 757 65 751 q 68 803 65 763 q 75 865 71 844 q 78 894 76 875 q 82 921 79 913 q 101 949 85 939 q 140 957 118 958 m 321 835 q 339 789 342 825 q 335 728 336 761 q 333 671 333 696 q 331 610 332 646 q 329 551 331 575 q 325 356 329 543 q 322 272 324 332 q 320 168 321 211 q 319 85 319 125 q 310 26 318 64 q 280 -1 306 4 q 239 10 254 -6 q 215 90 215 33 q 214 319 214 115 q 226 600 215 339 q 228 658 228 621 q 231 725 229 694 q 235 782 232 756 q 256 836 238 821 q 321 835 278 854 z "},"":{"ha":753,"x_min":13,"x_max":728,"o":"m 511 93 q 378 211 393 97 q 390 341 369 279 q 454 475 411 403 q 518 543 488 529 q 572 544 544 556 q 613 507 600 533 q 631 492 617 496 q 704 433 678 476 q 718 383 713 418 q 709 282 728 329 q 650 182 690 235 q 568 110 614 135 q 511 93 544 97 m 511 364 q 476 251 482 297 q 479 228 478 250 q 495 199 482 206 q 528 201 508 192 q 611 299 586 233 q 624 329 619 322 q 626 353 628 339 q 618 382 625 368 q 603 400 611 396 q 515 372 544 431 q 513 368 514 371 q 511 364 511 365 m 117 64 q 31 151 53 75 q 35 307 13 214 q 114 476 60 407 q 120 484 115 478 q 126 492 125 490 q 133 500 128 494 q 140 507 138 506 q 147 513 142 508 q 156 518 153 518 q 165 522 158 518 q 176 523 172 525 q 188 521 179 521 q 235 486 222 515 q 253 467 240 474 q 326 408 306 442 q 346 315 346 374 q 304 193 349 267 q 206 88 263 126 q 117 64 158 56 m 160 351 q 124 210 129 286 q 132 175 132 178 q 150 169 136 157 q 161 178 154 174 q 175 187 168 182 q 186 197 182 192 q 250 308 233 246 q 239 363 258 340 q 196 377 222 381 q 160 351 169 374 m 650 32 q 690 8 671 31 q 699 -26 703 -7 q 675 -51 694 -44 q 661 -58 672 -53 q 643 -64 650 -62 q 628 -65 636 -65 q 389 -68 564 -61 q 190 -85 289 -72 q 114 -90 160 -89 q 67 -62 74 -92 q 90 -4 57 -25 q 142 10 108 6 q 344 26 311 25 q 490 33 468 31 q 650 32 565 39 z "}}}
